<svg id="Artboard_30" enable-background="new 0 0 64 64" height="512" viewBox="0 0 64 64" width="512" xmlns="http://www.w3.org/2000/svg"><g><path d="m19.259 49h30.871c2.686 0 4.87-2.185 4.87-4.87 0-1.679-.847-3.217-2.265-4.114l-4.761-3.016h10.156c2.686 0 4.87-2.185 4.87-4.87 0-1.679-.847-3.217-2.319-4.146l-14.497-7.944c-9.959-6.307-22.574-6.718-32.923-1.074l-3.153 1.72c-1.918 1.044-3.108 3.049-3.108 5.232 0 1.593.62 3.09 1.746 4.215.025.025.053.048.078.073-.525.251-1.049.505-1.564.785l-3.153 1.72c-1.917 1.045-3.107 3.051-3.107 5.234 0 1.592.62 3.089 1.746 4.215 4.41 4.411 10.275 6.84 16.513 6.84zm-12.236-5.869c2.77.521 5.84 1.102 7.792 1.472 1.389.264 2.81.397 4.223.397h16.143c1.522.109 3.025.439 4.466.981.821.31 1.55.66 2.191 1.019h-22.58c-4.444 0-8.672-1.365-12.235-3.869zm45.977.999c0 1.583-1.287 2.87-2.87 2.87h-4.764c-.797-.662-1.928-1.466-3.405-2.191 1.692-.209 3.358-.588 4.972-1.174l4.907-1.784c.721.539 1.16 1.367 1.16 2.279zm8-12c0 1.583-1.287 2.87-2.87 2.87h-6.617c-1.264-.965-3.195-2.176-5.16-2.916l-.705 1.871c.758.286 1.51.652 2.215 1.045h-3.047l-4.633-2.934c-.037-.023-.075-.043-.112-.066h7.874c2.438 0 7.364-.395 10.203-1.455l1.745-.652c.688.542 1.107 1.348 1.107 2.237zm-50.84-3.411c-.531-.531-.883-1.19-1.048-1.904 3.598-.578 7.265-.875 10.88-.842l.016-2c-3.623-.041-7.256.253-10.837.81.295-.985.964-1.835 1.894-2.342l3.153-1.72c9.714-5.298 21.551-4.911 30.95 1.04l12.477 6.838-.195.073c-2.456.916-7.036 1.328-9.505 1.328h-11.566c-.836-.385-1.689-.721-2.548-1.031-1.731-2.345-3.844-4.316-6.302-5.845-2.56-1.591-5.374-2.647-8.366-3.138l-.324 1.974c2.731.448 5.3 1.411 7.634 2.862 1.4.87 2.664 1.913 3.813 3.081-6.429-1.519-13.231-1.046-19.464 1.431-.223-.203-.449-.401-.662-.615zm-5.096 5.749 3.153-1.72c4.555-2.484 9.575-3.718 14.589-3.718 5.677 0 11.344 1.583 16.307 4.726l10.625 6.73-3.49 1.269c-2.272.826-4.65 1.245-7.068 1.245h-20.142c-1.288 0-2.584-.122-3.851-.361-2.828-.536-8.003-1.515-11.209-2.113-.425-.49-.723-1.061-.867-1.684 3.597-.577 7.267-.872 10.88-.842l.016-2c-3.624-.033-7.256.255-10.837.81.295-.985.964-1.835 1.894-2.342z"/><path d="m26.216 41.621 1.568-1.241c-1.306-1.65-3.645-3.605-6.256-5.229-2.562-1.592-5.376-2.648-8.367-3.138l-.322 1.974c2.729.447 5.297 1.41 7.633 2.862 2.426 1.509 4.574 3.293 5.744 4.772z"/><path d="m37.216 40.621 1.568-1.241c-1.306-1.65-3.645-3.605-6.256-5.229-2.562-1.592-5.376-2.648-8.367-3.138l-.322 1.974c2.729.447 5.297 1.41 7.633 2.862 2.426 1.509 4.574 3.293 5.744 4.772z"/><path d="m41.674 27.919c.183.239.361.473.541.7l1.57-1.238c-.173-.22-.346-.446-.522-.676-1.117-1.462-2.385-3.119-4.734-4.581-2.56-1.591-5.374-2.647-8.366-3.138l-.324 1.974c2.731.448 5.3 1.411 7.634 2.862 2.039 1.269 3.138 2.706 4.201 4.097z"/><path d="m30 39h2v2h-2z"/><path d="m46 25h2v2h-2z"/><path d="m34 25h2v2h-2z"/><path d="m16 38h2v2h-2z"/><path d="m40 36h2v2h-2z"/></g></svg>