<svg xmlns="http://www.w3.org/2000/svg" version="1.1" xmlns:xlink="http://www.w3.org/1999/xlink" width="512" height="512" x="0" y="0" viewBox="0 0 512 512" style="enable-background:new 0 0 512 512" xml:space="preserve" class=""><g><path fill="#ece7e7" d="M104.986 376.096c-15.351-2.558-32.972-13.6-51.303-32.148-11.307-11.441-18.97-21.707-23.797-31.879-3.31-6.975-4.629-12.156-4.67-18.34-.042-4.556.233-5.93 1.626-8.424 2.07-3.713 5.741-5.809 9.076-5.184 2.568.482 6.869 4.717 7.552 7.436.435 1.734-.646 4.49-1.761 4.49-1.048 0-.76 1.44 1.077 5.387 3.762 8.085 14.639 21.891 26.593 33.756 17.122 16.996 33.42 26.195 44.517 25.129 4.633-.445 5.854-2.024 5.854-7.576 0-7.329-3.178-15.232-9.654-24.007-5.779-7.831-12.507-13.603-33.028-28.337-11.902-8.545-19.813-16.201-22.607-21.875-5.109-10.378-1.489-22.238 8.318-27.257 10.153-5.194 25.758-1.816 42.398 9.179 6.201 4.098 12.249 10.133 12.949 12.924.634 2.525-.958 5.318-3.183 5.58-.94.111-3.605-.738-5.921-1.888-11.969-5.938-34.678-10.974-36.464-8.085-.686 1.11 5.907 7.447 13.534 13.007 26.035 18.98 32.723 24.812 40.623 35.417 4.957 6.656 9.495 15.555 11.501 22.553 1.165 4.063 1.518 7.078 1.531 13.08 0 7.355-.106 8.059-2.113 12.296-2.816 5.943-6.264 9.63-11.342 12.13-6.328 3.112-13.278 3.973-21.306 2.636zm57.026-3.684c-7.072-3.524-13.266-12.884-16.593-25.074-1.287-4.714-1.481-7.166-1.481-18.656 0-11.447.2-13.961 1.471-18.656 3.508-12.951 10.776-22.764 18.577-25.08 4.654-1.382 5.866-1.318 9.457.5 2.56 1.297 3.516 1.445 6.045.945 3.684-.729 11.249.407 14.808 2.224 2.333 1.189 6.981 5.745 8.561 8.389.628 1.052 1.176 1.06 7.462.098 3.731-.571 7.963-.841 9.405-.599 2.502.42 2.803.264 6.668-3.533 2.227-2.185 4.772-5.383 5.657-7.106 1.769-3.447 4.451-5.984 8.72-8.251 3.952-2.098 12.467-2.108 16.397-.041 3.44 1.827 6.807 5.202 8.536 8.559 1.543 2.996 1.334 3.015 10.085-.879 6.237-2.775 12.301-4.757 14.538-4.75 3.141 0 6.941 1.643 9.295 3.996 4.934 4.934 5.079 11.41.633 28.201-1.48 5.585-2.623 10.221-2.543 10.301s2.737-3.225 5.902-7.347c6.33-8.243 13.305-15.101 16.061-15.793 2.561-.642 5.384.774 6.392 3.208.737 1.781.64 3.717-.642 12.662-2.244 15.67-1.821 26.277 1.197 30.006l1.201 1.482 2.365-1.462c3.086-1.907 8.882-8.06 10.385-11.025 1.883-3.711 3.066-4.71 5.588-4.71 3.23 0 6.028 2.895 6.621 6.851.495 3.299-.945 10.739-2.783 14.377-3.748 7.421-9.706 12.487-16.892 14.368-9.762 2.553-19.398-2.813-23.537-13.107-1.347-3.351-1.541-5.039-1.549-13.453v-9.622l-2.216 3.855c-1.218 2.12-5.402 10.123-9.299 17.783-8.096 15.921-9.275 17.279-14.996 17.279-4.454 0-7.807-2.401-9.482-6.79-2.159-5.652 0-20.867 6.493-45.566 1.487-5.662 2.703-10.444 2.703-10.627s-2.062.428-4.579 1.357c-8.012 2.957-7.633 2.697-7.633 5.23 0 3.605-2.479 15.091-4.634 21.457-5.907 17.461-14.292 29.402-23.688 33.734-14.252 6.57-27.448-2.555-30.992-21.428-1.852-9.862-1.202-18.117 2.239-28.424 2.087-6.254 2.251-6.052-3.134-3.85-1.941.795-2.205 1.209-2.207 3.48 0 4.572-1.982 14.955-4.142 21.746-4.133 13-11.04 24.85-17.436 29.915-7.272 5.761-16.131 7.228-22.994 3.808zm11.806-20.495c5.006-5.413 11.177-20.835 12.154-30.372l.424-4.145-3.981-.887c-7.535-1.676-12.872-5.276-14.862-10.025l-.792-1.891-1.136 2.672c-2.955 6.949-3.885 20.32-2.118 30.453 1.464 8.393 5.078 16.738 7.25 16.738.389.001 1.767-1.144 3.061-2.543zm61.714-5.841c4.552-5.177 9.942-17.523 12.131-27.785 1.485-6.965 1.48-6.98-2.576-8.283-1.959-.63-4.7-1.875-6.091-2.769s-2.667-1.624-2.833-1.624c-.621 0-4.544 11.064-5.839 16.464-1.675 6.985-1.792 17.065-.259 22.253 1.727 5.845 1.831 5.878 5.467 1.744zm166.438 24.25c-4.432-1.57-6.105-3.887-6.105-8.449 0-2.379.415-3.244 2.634-5.461 2.153-2.152 3.112-2.633 5.258-2.631 6.028 0 9.698 5.281 7.669 11.024-.536 1.517-1.738 3.315-2.671 3.999-1.844 1.348-5.165 2.091-6.785 1.518zm-43.001-7.105c-4.054-3.189-4.72-7.115-2.144-12.647 1.997-4.29 4.878-6.282 9.087-6.286 2.453 0 3.34.387 5.258 2.305 1.866 1.866 2.307 2.832 2.307 5.063 0 3.602-2.313 9.529-4.473 11.457-2.313 2.064-7.477 2.119-10.035.108zm64.973-14.174c-3.84-1.551-5.536-7.303-3.365-11.41 2.257-4.271 24.164-23.318 30.407-26.437 3.558-1.776 8.356-1.983 10.539-.456 1.845 1.293 3.539 4.429 3.539 6.551 0 3.113-2.548 5.959-12.89 14.396-5.784 4.718-12.652 10.352-15.265 12.52s-5.416 4.293-6.23 4.723c-1.71.898-4.666.949-6.735.113zm-41.361-2.649c-4.123-2.515-4.703-8.074-1.347-12.892.939-1.349 4.199-5.198 7.244-8.557s10.761-12.056 17.146-19.328c6.386-7.272 14.867-16.81 18.849-21.194s8.408-9.472 9.837-11.305c4.379-5.614 7.918-6.801 12.307-4.125 2.319 1.414 4.199 4.841 4.199 7.654 0 .886-.903 3.414-2.008 5.619-2.044 4.081-15.124 20.938-25.718 33.144-8.286 9.548-26.843 27.979-30.509 30.304-3.627 2.301-6.97 2.528-10 .68zm-22.03-36.228c-10.943-3.73-16.744-12.307-16.097-23.799.796-14.135 11.941-25.364 35.802-36.07 7.078-3.176 26.639-10.46 33.7-12.55 1.875-.555 2.966-1.32 3.237-2.272 2.114-7.418 9.913-38.6 9.706-38.807-.148-.149-3.145 3.469-6.66 8.036s-9.14 11.084-12.499 14.48c-9.012 9.11-14.759 11.955-20.985 10.387-2.747-.691-7.173-4.054-7.173-5.45 0-1.254-1.86-.514-3.773 1.501-7.599 8.002-19.31 7.364-24.51-1.336-3.736-6.249-3.833-16.275-.31-31.761 1.035-4.55 1.604-8.101 1.265-7.892-1.059.654-8.653 12.545-11.074 17.337-3.19 6.319-6.472 14.74-6.023 15.465.686 1.109-1.479 5.071-3.966 7.253-7.069 6.208-17.542 2.074-21.121-8.336l-.771-2.243-10.211 10.036c-8.316 8.175-10.816 10.243-13.485 11.152-3.759 1.281-8.327 1.428-12.07.39-3.081-.855-7.544-4.703-9.199-7.928l-1.185-2.31-1.73 2.599c-4.971 7.464-12.047 13.907-16.299 14.841-1.201.263-2.988 1.075-3.972 1.802-2.735 2.022-6.683 2.291-10.281.699-3.957-1.75-6.329-4.936-7.723-10.371-2.033-7.927-.174-17.531 6.102-31.508 2.801-6.239 2.189-5.617-5.62 5.712-7.498 10.876-10.909 14.599-14.706 16.049-2.617 1-3.462 1.046-5.876.322-6.195-1.856-8.459-7.233-7.774-18.468.225-3.667.271-6.668.11-6.668s-2.491 3.282-5.174 7.293c-15.412 23.039-23.238 29.272-31.927 25.429-4.301-1.902-6.193-4.848-6.532-10.17-.149-2.368.085-6.139.528-8.381 1.155-5.869 6.233-21.124 9.095-27.316 1.348-2.918 2.075-5.167 1.616-4.998-.459.17-2.398.822-4.308 1.45l-3.473 1.142-.844 5.233c-3.244 20.12-20.032 43.995-36.936 52.528-8.203 4.14-16.558 5.198-23.321 2.951-4.3-1.428-9.071-5.581-11.008-9.582-1.431-2.957-1.547-3.036-2.94-2.027-8.234 5.966-19.588 10.803-28.361 12.083-16.421 2.396-30.017-7.818-34.195-25.688-1.7-7.271-1.053-21.771 1.327-29.782 8.108-27.284 36.938-56.435 64.189-64.903 7.052-2.191 18.53-2.267 23.1-.152 14.899 6.894 15.452 24.317 1.331 41.871-5.203 6.468-7.73 8.599-10.198 8.599-2.163 0-4.057-2.086-4.057-4.467 0-.798 1.195-4.012 2.655-7.142 3.527-7.56 4.925-12.646 4.674-17.015l-.208-3.601-2.96-.212c-9.141-.655-25.421 8.175-38.333 20.792-10.43 10.194-17.442 20.937-20.881 31.997-2.264 7.278-2.247 17.805.042 22.912 2.817 6.3 7.642 8.84 15.173 7.989 4.139-.469 12.682-3.025 16.321-4.885 3.516-1.796 11.986-7.816 11.986-8.518 0-1.728 4.414-11.35 7.194-15.682 3.934-6.128 15.454-17.481 21.807-21.489 3.558-2.245 5.041-3.628 5.599-5.224.42-1.194 1.822-3.103 3.119-4.241 3.891-3.417 6.721-4.333 13.501-4.369 6.841-.042 10.424 1.154 14.656 4.871 2.374 2.084 2.381 2.085 7.428 1.46 2.779-.343 8.424-1.288 12.545-2.097 11.593-2.276 13.015-1.393 11.889 7.391-.369 2.895-1.754 9.062-3.075 13.707-1.32 4.645-2.4 8.584-2.4 8.755 0 .169 2.23-2.875 4.956-6.768 11.875-16.963 16.783-22.826 21.342-25.498 6.166-3.613 12.859-1.789 15.812 4.311 1.333 2.752 1.452 3.76 1.06 8.963-.242 3.224-1.196 9.659-2.118 14.299s-1.556 8.557-1.409 8.704c.149.149 3.501-4.025 7.455-9.271 18.188-24.128 28.97-34.294 34.973-32.976 1.12.246 2.681 1.263 3.468 2.261 2.56 3.243 1.653 7.26-5.993 26.576-3.767 9.515-7.924 20.849-9.239 25.187-2.604 8.593-5.003 19.991-4.345 20.648.953.953 5.636-2.235 8.71-5.93 5.222-6.274 15.312-24.297 17.593-31.425 2.846-8.889 16.374-34.654 19.256-36.673 3.102-2.172 7.224-.271 8.181 3.771.237 1.012-.701 5.8-2.333 11.872-8.412 31.312-8.319 30.893-8.403 37.991l-.079 6.784 2.251.216c6.822.654 22.897-19.151 34.144-42.068 7.999-16.3 14.033-26.738 15.964-27.618 2.53-1.153 4.199-.898 6.016.918 2.193 2.194 2.123 4.276-.407 12.012-2.47 7.545-7.428 24.524-7.416 25.396 0 .339 1.913-2.62 4.24-6.572 5.686-9.657 13.049-19.891 16.335-22.703 7.231-6.19 14.811-5.346 18.157 2.022 1.723 3.793 1.595 7.595-.724 21.547-2.208 13.287-3.745 26.232-3.183 26.795.398.398 3.265-1.48 7.637-5.003 2.382-1.918 3.063-3.1 4.712-8.178 1.06-3.265 3.655-9.346 5.767-13.513 12.082-23.844 26.719-33.896 36.504-25.071 1.894 1.708 2.862 3.846 3.42 7.547l.406 2.714 4.323-5.987c5.224-7.234 11.157-13.752 13.731-15.083 3.926-2.03 8.537-.48 10.428 3.504 1.467 3.089 1.313 4.402-1.252 10.651-3.036 7.396-4.715 12.387-7.518 22.349-3.017 10.722-11.232 44.006-11.232 45.504 0 .932 1.253.521 6.614-2.171 12.062-6.054 18.439-12.077 21.247-20.063 1.599-4.551 1.743-12.272.292-15.742-1.47-3.518-1.259-5.949.72-8.3 2.416-2.871 5.507-3.344 9.433-1.443 6.561 3.176 10.539 10.516 10.539 19.443 0 10.666-4.435 20.826-12.847 29.431-7.887 8.067-19.851 15.024-35.855 20.848l-6.98 2.54-2.234 6.445c-4.701 13.563-11.498 25.618-19.024 33.743-13.308 14.364-32.489 21.064-46.565 16.266zm19.514-18.891c10.39-3.827 19.48-12.783 25.885-25.501 1.169-2.321 2.126-4.382 2.126-4.579 0-.834-2.241-.127-11.873 3.745-20.655 8.305-32.225 16.665-32.225 23.289.001 4.423 8.157 5.968 16.087 3.046zm-270.973-65.876c5.237-2.791 11.533-9.081 16.374-16.355 3.971-5.967 8.068-14.238 8.828-17.821l.448-2.112-4.735-.339c-2.859-.204-5.893-.912-7.654-1.783l-2.918-1.444-4.3 4.233c-8.374 8.245-14.109 17.44-16.073 25.771-1.172 4.972-1.274 7.896-.36 10.304.979 2.575 5.039 2.397 10.39-.455zm298.779-31.388c5.84-7.299 7.194-11.182 6.862-19.672l-.212-5.428-2.611 2.714c-6.175 6.418-12.858 18.476-16.327 29.458-2.803 8.873-2.466 9.321 2.848 3.783 2.507-2.614 6.755-7.499 9.44-10.855zm-222.654 80.296c-12.371-1.578-26.51-7.118-33.261-13.035-1.875-1.645-4.276-4.58-5.334-6.525-1.651-3.034-1.883-4.104-1.634-7.542.233-3.248.653-4.388 2.207-6.01 1.055-1.101 2.769-2.188 3.808-2.417 2.595-.57 5.749 1.195 6.625 3.706.39 1.123 1.722 2.662 2.957 3.42 2.876 1.766 19.318 7.152 24.633 8.069 17.139 2.958 38.181 1.053 81.41-7.368 27.102-5.279 31.43-5.924 45.332-6.753 14.774-.881 22.744.486 25.267 4.335.944 1.441 1.02 2.102.398 3.468-1.023 2.247-3.079 2.909-6.837 2.202-7.307-1.374-24.964 1.998-52.09 9.946-31.272 9.164-48.368 12.959-65.664 14.58-8.721.816-21.07.783-27.815-.078zm91.259-122.545c-3.197-1.63-4.898-4.242-5.255-8.071-.398-4.289 1.596-7.391 6.235-9.689 3.03-1.502 4.179-1.664 11.532-1.628 8.523.042 20.125 1.914 23.881 3.856 4.703 2.432 6.035 7.002 2.987 10.247-1.786 1.901-4.063 2.468-17.684 4.394-14.673 2.074-19.024 2.253-21.696.891z" opacity="1" data-original="#ffffff" class=""></path><path fill="#f382c4" d="M95.596 124.031c-4.322.028-8.955.596-12.48 1.691-27.25 8.468-56.081 37.618-64.189 64.902-2.301 7.744-2.973 21.532-1.48 29.012 5.759-2.7 12.231-5.468 19.215-8.004-.351-4.949.174-10.721 1.58-15.24 3.439-11.061 10.45-21.803 20.881-31.996 12.911-12.617 29.191-21.448 38.332-20.793l2.961.211.207 3.602c.25 4.369-1.146 9.456-4.674 17.016-1.46 3.13-2.656 6.344-2.656 7.143 0 2.381 1.894 4.465 4.057 4.465 2.468 0 4.996-2.129 10.199-8.598 14.122-17.555 13.569-34.978-1.33-41.871-2.287-1.058-6.301-1.568-10.623-1.54zm193.392 8.346c-7.354-.035-8.501.127-11.531 1.629-4.639 2.299-6.635 5.401-6.236 9.689.356 3.829 2.059 6.441 5.256 8.07 2.673 1.362 7.021 1.183 21.695-.893 13.62-1.926 15.899-2.491 17.686-4.393 3.048-3.245 1.715-7.816-2.988-10.248-3.757-1.94-15.358-3.812-23.882-3.854zm159.578 13.902a7.788 7.788 0 0 0-3.777.889c-2.573 1.331-8.507 7.85-13.73 15.084l-4.324 5.986-.406-2.713c-.558-3.702-1.526-5.841-3.42-7.549-9.784-8.825-24.422 1.229-36.504 25.072-2.112 4.167-4.707 10.249-5.768 13.514-1.649 5.079-2.329 6.26-4.711 8.178-2.005 1.615-3.644 2.836-4.922 3.699 13.101 2.121 28.709 2.789 44.369 2.236 1.764-2.085 3.488-4.177 4.867-5.969 3.515-4.567 6.512-8.184 6.66-8.035.09.09-1.421 6.336-3.223 13.602a293.43 293.43 0 0 0 16.295-1.477c2.366-9.56 5.021-19.961 6.475-25.125 2.803-9.962 4.481-14.953 7.518-22.35 2.564-6.249 2.718-7.561 1.252-10.65-1.3-2.738-3.886-4.326-6.651-4.392zm-110.759 3.354c-.76.028-1.586.263-2.535.695-1.931.88-7.966 11.318-15.965 27.617a177.035 177.035 0 0 1-10.004 17.697c10.811-.031 21.186 1.526 32.699 4.805 2.969-5.393 9.29-15.216 10.252-15.811.34-.21-.23 3.341-1.266 7.891-.835 3.672-1.461 7.029-1.889 10.109 1.593.527 3.203 1.073 4.852 1.662 4.164 1.487 8.988 2.696 14.26 3.662.165-3.983 1.484-14.33 3.26-25.014 2.318-13.952 2.447-17.754.725-21.547-3.347-7.368-10.925-8.211-18.156-2.021-3.286 2.813-10.65 13.047-16.336 22.703-2.327 3.953-4.24 6.912-4.24 6.572-.012-.872 4.946-17.851 7.416-25.396 2.53-7.735 2.601-9.817.406-12.012-1.136-1.134-2.213-1.659-3.479-1.612zm-49.18 8.846c-1.041-.058-2.111.224-3.08.902-2.883 2.019-16.41 27.783-19.256 36.672-.561 1.752-1.598 4.167-2.914 6.9 7.939-2.073 15.194-3.754 21.924-4.955 1.231-4.874 3.109-11.867 6.094-22.975 1.632-6.072 2.571-10.861 2.334-11.873-.659-2.778-2.813-4.545-5.102-4.671zm-33.713.146c-6.198.119-16.74 10.468-33.791 33.088-3.954 5.246-7.306 9.418-7.455 9.27-.146-.146.488-4.063 1.41-8.703s1.875-11.075 2.117-14.299c.392-5.204.274-6.212-1.059-8.965-2.953-6.1-9.646-7.924-15.813-4.311-4.559 2.672-9.466 8.535-21.342 25.498-2.726 3.894-4.957 6.937-4.957 6.768 0-.171 1.081-4.109 2.4-8.754s2.707-10.813 3.076-13.707c1.126-8.783-.297-9.667-11.891-7.391-4.121.81-9.767 1.752-12.545 2.096-5.047.625-5.054.624-7.428-1.461-4.233-3.716-7.815-4.911-14.656-4.869-6.78.037-9.611.952-13.502 4.369-1.297 1.139-2.699 3.046-3.119 4.24-.559 1.596-2.04 2.98-5.598 5.225-6.353 4.008-17.873 15.362-21.807 21.49-.607.946-1.296 2.167-1.996 3.48 5.833 0 11.646.488 17.342 1.598 2.777-4.588 6.438-9.177 10.832-13.504l4.299-4.234 2.918 1.445c1.762.871 4.796 1.578 7.654 1.781l4.736.34-.449 2.111c-.755 3.559-4.802 11.736-8.746 17.693a260.135 260.135 0 0 0 20.273 4.227c4.257-7.534 7.335-15.529 8.541-23.006l.844-5.232 3.473-1.141c1.91-.628 3.849-1.28 4.309-1.449.459-.169-.269 2.078-1.617 4.996-2.794 6.047-7.675 20.673-8.98 26.826 10.938 1.509 21.525 2.192 31.891 2.139a265.698 265.698 0 0 0 5.926-8.523c2.683-4.011 5.013-7.293 5.174-7.293s.115 3-.109 6.668c-.211 3.472-.14 6.381.24 8.803 8.562-.48 17.006-1.449 25.41-2.85a273.335 273.335 0 0 0 2.705-3.855c7.81-11.329 8.422-11.951 5.621-5.713-1.401 3.12-2.568 6.011-3.535 8.725 6.779-1.262 13.542-2.8 20.332-4.582 1.91-5.45 4.807-13.208 7.529-20.086 7.646-19.315 8.552-23.332 5.992-26.574-.787-.998-2.347-2.016-3.467-2.262a4.995 4.995 0 0 0-1.182-.112zm159.607 10.291.211 5.426c.332 8.491-1.021 12.374-6.861 19.672-2.686 3.357-6.935 8.242-9.441 10.855-5.313 5.539-5.648 5.09-2.846-3.783 3.469-10.981 10.151-23.039 16.326-29.457zm54.926 11.404c-2.076-.073-3.85.784-5.359 2.578-1.979 2.351-2.188 4.783-.719 8.301 1.24 2.965 1.305 9.022.303 13.564 8.046-1.866 14.999-4.115 20.242-6.695-.752-7.63-4.543-13.781-10.395-16.613-1.472-.713-2.826-1.091-4.072-1.135z" opacity="1" data-original="#ffff00" class=""></path><path fill="#aaffff" d="M429.098 308.307c-13.077 7.311-26.108 17.626-33.949 25.467-4.178 4.178-9.64 7.131-15.584 8.98a7.152 7.152 0 0 0 3.016 3.645c3.031 1.848 6.373 1.62 10-.68 3.667-2.326 22.224-20.758 30.51-30.305a428.796 428.796 0 0 0 6.007-7.107zm27.672 1.425c-1.917.083-4.007.58-5.785 1.469-6.243 3.118-28.151 22.164-30.408 26.436-2.171 4.107-.473 9.859 3.367 11.41 2.068.836 5.023.786 6.734-.113.814-.429 3.619-2.555 6.23-4.723 2.612-2.168 9.48-7.802 15.264-12.52 10.343-8.438 12.891-11.283 12.891-14.396 0-2.123-1.694-5.258-3.539-6.551-1.091-.764-2.837-1.095-4.754-1.012zM300.1 324.531c-7.869-.004-16.236 1.041-24.506 3.289-4.137 17.731-5.354 29.063-3.568 33.74 1.676 4.39 5.028 6.789 9.482 6.789 5.721 0 6.899-1.356 14.996-17.277 3.896-7.66 8.08-15.664 9.299-17.785l2.217-3.855v9.623c.008 8.414.202 10.104 1.549 13.453 4.139 10.295 13.774 15.66 23.535 13.107 7.187-1.881 13.145-6.947 16.893-14.367.918-1.816 1.735-4.581 2.264-7.305-5.493-1.216-10.3-3.348-13.693-6.287-2.416 3.031-6.12 6.702-8.381 8.1l-2.365 1.461-1.201-1.482c-2.118-2.615-2.952-8.629-2.49-17.391-6.79-2.455-15.088-3.809-24.031-3.813zm-35.022 6.649c-7.291 2.389-15.374 4.736-24.334 6.631-1.715 3.428-3.522 6.343-5.213 8.266h.002c-3.636 4.135-3.741 4.101-5.469-1.744-.366-1.236-.631-2.766-.811-4.451a188.94 188.94 0 0 1-20.166 1.924c.158 1.281.359 2.583.609 3.914 3.544 18.874 16.738 27.998 30.99 21.428 9.396-4.332 17.783-16.273 23.689-33.734a67.27 67.27 0 0 0 .703-2.234zm-133.23 2.033c-5.343-.067-10.612.389-15.76 1.238 2.447 5.028 3.662 9.77 3.662 14.291 0 5.552-1.22 7.131-5.854 7.576-7.699.74-17.902-3.471-29.146-11.789-7.017 3.297-13.431 6.975-19.039 10.582 13.977 11.828 27.316 18.992 39.275 20.984 8.027 1.338 14.977.477 21.305-2.637 5.079-2.499 8.527-6.186 11.344-12.129 2.007-4.236 2.111-4.941 2.111-12.297-.013-6.003-.365-9.019-1.529-13.08-.229-.8-.501-1.629-.793-2.473a81.755 81.755 0 0 0-5.576-.266zm12.131 1.08c.09 6.708.409 9.263 1.441 13.045 3.327 12.191 9.52 21.55 16.592 25.074l.01-.018c6.863 3.42 15.722 1.953 22.994-3.807 5.851-4.634 12.123-14.947 16.314-26.621a200.256 200.256 0 0 1-21.014-1.107c-2.054 4.674-4.379 8.767-6.498 11.059-1.294 1.399-2.672 2.543-3.063 2.543-2.107 0-5.56-7.865-7.1-16.002a237.964 237.964 0 0 1-14.004-3.004 75.677 75.677 0 0 0-5.672-1.162zm225.033 10.57a56.463 56.463 0 0 1-7.188.236c-2.1.949-3.729 2.744-5 5.473-2.576 5.532-1.909 9.459 2.145 12.648 2.559 2.012 7.723 1.957 10.035-.109 2.159-1.928 4.473-7.855 4.473-11.457 0-2.23-.44-3.196-2.307-5.063-.845-.845-1.491-1.38-2.158-1.728zm34.744 8.922c-2.145-.002-3.104.479-5.258 2.631-2.219 2.217-2.635 3.082-2.635 5.461 0 4.563 1.676 6.879 6.107 8.449 1.62.574 4.939-.169 6.783-1.518.933-.683 2.136-2.483 2.672-4 2.03-5.742-1.641-11.023-7.669-11.023z" opacity="1" data-original="#00ffff" class=""></path></g></svg>