<svg xmlns="http://www.w3.org/2000/svg" version="1.1" xmlns:xlink="http://www.w3.org/1999/xlink" width="512" height="512" x="0" y="0" viewBox="0 0 512 512" style="enable-background:new 0 0 512 512" xml:space="preserve" class=""><g><path fill-rule="evenodd" d="M35.021 218.979h441.958a37.021 37.021 0 0 1 0 74.042H35.021a37.021 37.021 0 0 1 0-74.042zm441.958 32H35.021a5.022 5.022 0 0 0 0 10.044h441.958a5.022 5.022 0 0 0 0-10.044zM35.021 75.957h441.958a37.022 37.022 0 0 1 0 74.043H35.021a37.022 37.022 0 0 1 0-74.043zm441.958 32H35.021a5.022 5.022 0 0 0 0 10.043h441.958a5.022 5.022 0 0 0 0-10.043zM35.021 362h441.958a37.022 37.022 0 0 1 0 74.043H35.021a37.022 37.022 0 0 1 0-74.043zm441.958 32H35.021a5.022 5.022 0 0 0 0 10.043h441.958a5.022 5.022 0 0 0 0-10.043zM35.021 118h441.958a5.022 5.022 0 0 0 0-10.043H35.021a5.022 5.022 0 0 0 0 10.043zm441.958 132.978H35.021a5.022 5.022 0 0 0 0 10.044h441.958a5.022 5.022 0 0 0 0-10.044zm0 143.022H35.021a5.022 5.022 0 0 0 0 10.043h441.958a5.022 5.022 0 0 0 0-10.043z" fill="#c3ffff" opacity="1" data-original="#000000" class=""></path></g></svg>